999
Generated by Autodesk CAM - http://cam.autodesk.com
0
SECTION
2
HEADER
9
$ACADVER
1
AC1006
9
$ANGBASE
50
0
9
$ANGDIR
70
0
0
ENDSEC
0
SECTION
2
BLOCKS
0
ENDSEC
9
$EXTMIN
10
-105.9
20
-72.951
30
0
9
$EXTMAX
10
105.9
20
72.951
30
15
0
SECTION
2
ENTITIES
0
LINE
8
1
62
3
10
100.007
20
-41.844
30
15
11
100.007
21
-41.844
31
15
0
LINE
8
1
62
3
10
100.007
20
-41.844
30
15
11
100.007
21
-41.844
31
0
0
LINE
8
1
62
2
10
100.007
20
-41.844
30
0
11
100.004
21
-41.839
31
0
0
LINE
8
1
62
1
10
100.004
20
-41.839
30
0
11
100.001
21
-41.839
31
0
0
LINE
8
1
62
1
10
100.001
20
-41.839
30
0
11
100.001
21
-57.394
31
0
0
LINE
8
1
62
1
10
100.001
20
-57.394
30
0
11
105.9
21
-57.394
31
0
0
LINE
8
1
62
1
10
105.9
20
-57.394
30
0
11
105.9
21
-57.394
31
0
0
LINE
8
1
62
1
10
105.9
20
-57.394
30
0
11
105.9
21
-72.95
31
0
0
LINE
8
1
62
1
10
105.9
20
-72.95
30
0
11
105.9
21
-72.951
31
0
0
LINE
8
1
62
1
10
105.9
20
-72.951
30
0
11
-105.9
21
-72.951
31
0
0
LINE
8
1
62
1
10
-105.9
20
-72.951
30
0
11
-105.9
21
-72.95
31
0
0
LINE
8
1
62
1
10
-105.9
20
-72.95
30
0
11
-105.9
21
-57.394
31
0
0
LINE
8
1
62
1
10
-105.9
20
-57.394
30
0
11
-105.9
21
-57.394
31
0
0
LINE
8
1
62
1
10
-105.9
20
-57.394
30
0
11
-100.001
21
-57.394
31
0
0
LINE
8
1
62
1
10
-100.001
20
-57.394
30
0
11
-100.001
21
-41.839
31
0
0
LINE
8
1
62
1
10
-100.001
20
-41.839
30
0
11
-105.9
21
-41.839
31
0
0
LINE
8
1
62
1
10
-105.9
20
-41.839
30
0
11
-105.9
21
-41.839
31
0
0
LINE
8
1
62
1
10
-105.9
20
-41.839
30
0
11
-105.9
21
-26.283
31
0
0
LINE
8
1
62
1
10
-105.9
20
-26.283
30
0
11
-105.9
21
-26.283
31
0
0
LINE
8
1
62
1
10
-105.9
20
-26.283
30
0
11
-100.001
21
-26.283
31
0
0
LINE
8
1
62
1
10
-100.001
20
-26.283
30
0
11
-100.001
21
-10.728
31
0
0
LINE
8
1
62
1
10
-100.001
20
-10.728
30
0
11
-105.9
21
-10.728
31
0
0
LINE
8
1
62
1
10
-105.9
20
-10.728
30
0
11
-105.9
21
-10.728
31
0
0
LINE
8
1
62
1
10
-105.9
20
-10.728
30
0
11
-105.9
21
4.828
31
0
0
LINE
8
1
62
1
10
-105.9
20
4.828
30
0
11
-105.9
21
4.828
31
0
0
LINE
8
1
62
1
10
-105.9
20
4.828
30
0
11
-100.001
21
4.828
31
0
0
LINE
8
1
62
1
10
-100.001
20
4.828
30
0
11
-100.001
21
20.383
31
0
0
LINE
8
1
62
1
10
-100.001
20
20.383
30
0
11
-105.9
21
20.383
31
0
0
LINE
8
1
62
1
10
-105.9
20
20.383
30
0
11
-105.9
21
20.383
31
0
0
LINE
8
1
62
1
10
-105.9
20
20.383
30
0
11
-105.9
21
35.939
31
0
0
LINE
8
1
62
1
10
-105.9
20
35.939
30
0
11
-105.9
21
35.939
31
0
0
LINE
8
1
62
1
10
-105.9
20
35.939
30
0
11
-100.001
21
35.939
31
0
0
LINE
8
1
62
1
10
-100.001
20
35.939
30
0
11
-100.001
21
51.494
31
0
0
LINE
8
1
62
1
10
-100.001
20
51.494
30
0
11
-105.9
21
51.494
31
0
0
LINE
8
1
62
1
10
-105.9
20
51.494
30
0
11
-105.9
21
51.494
31
0
0
LINE
8
1
62
1
10
-105.9
20
51.494
30
0
11
-105.9
21
67.05
31
0
0
LINE
8
1
62
1
10
-105.9
20
67.05
30
0
11
-105.9
21
67.05
31
0
0
LINE
8
1
62
1
10
-105.9
20
67.05
30
0
11
-25
21
67.05
31
0
0
LINE
8
1
62
1
10
-25
20
67.05
30
0
11
-25
21
72.95
31
0
0
LINE
8
1
62
1
10
-25
20
72.95
30
0
11
-25
21
72.951
31
0
0
LINE
8
1
62
1
10
-25
20
72.951
30
0
11
25
21
72.951
31
0
0
LINE
8
1
62
1
10
25
20
72.951
30
0
11
25
21
72.95
31
0
0
LINE
8
1
62
1
10
25
20
72.95
30
0
11
25
21
67.05
31
0
0
LINE
8
1
62
1
10
25
20
67.05
30
0
11
105.9
21
67.05
31
0
0
LINE
8
1
62
1
10
105.9
20
67.05
30
0
11
105.9
21
67.05
31
0
0
LINE
8
1
62
1
10
105.9
20
67.05
30
0
11
105.9
21
51.494
31
0
0
LINE
8
1
62
1
10
105.9
20
51.494
30
0
11
105.9
21
51.494
31
0
0
LINE
8
1
62
1
10
105.9
20
51.494
30
0
11
100.001
21
51.494
31
0
0
LINE
8
1
62
1
10
100.001
20
51.494
30
0
11
100.001
21
35.939
31
0
0
LINE
8
1
62
1
10
100.001
20
35.939
30
0
11
105.9
21
35.939
31
0
0
LINE
8
1
62
1
10
105.9
20
35.939
30
0
11
105.9
21
35.939
31
0
0
LINE
8
1
62
1
10
105.9
20
35.939
30
0
11
105.9
21
20.383
31
0
0
LINE
8
1
62
1
10
105.9
20
20.383
30
0
11
105.9
21
20.383
31
0
0
LINE
8
1
62
1
10
105.9
20
20.383
30
0
11
100.001
21
20.383
31
0
0
LINE
8
1
62
1
10
100.001
20
20.383
30
0
11
100.001
21
4.828
31
0
0
LINE
8
1
62
1
10
100.001
20
4.828
30
0
11
105.9
21
4.828
31
0
0
LINE
8
1
62
1
10
105.9
20
4.828
30
0
11
105.9
21
4.828
31
0
0
LINE
8
1
62
1
10
105.9
20
4.828
30
0
11
105.9
21
-10.728
31
0
0
LINE
8
1
62
1
10
105.9
20
-10.728
30
0
11
105.9
21
-10.728
31
0
0
LINE
8
1
62
1
10
105.9
20
-10.728
30
0
11
100.001
21
-10.728
31
0
0
LINE
8
1
62
1
10
100.001
20
-10.728
30
0
11
100.001
21
-26.283
31
0
0
LINE
8
1
62
1
10
100.001
20
-26.283
30
0
11
105.9
21
-26.283
31
0
0
LINE
8
1
62
1
10
105.9
20
-26.283
30
0
11
105.9
21
-26.283
31
0
0
LINE
8
1
62
1
10
105.9
20
-26.283
30
0
11
105.9
21
-41.839
31
0
0
LINE
8
1
62
1
10
105.9
20
-41.839
30
0
11
105.9
21
-41.839
31
0
0
LINE
8
1
62
1
10
105.9
20
-41.839
30
0
11
100.004
21
-41.839
31
0
0
LINE
8
1
62
2
10
100.004
20
-41.839
30
0
11
100.002
21
-41.844
31
0
0
LINE
8
1
62
3
10
100.002
20
-41.844
30
0
11
100.002
21
-41.844
31
15
0
ENDSEC
0
EOF
