999
Generated by Autodesk CAM - http://cam.autodesk.com
0
SECTION
2
HEADER
9
$ACADVER
1
AC1006
9
$ANGBASE
50
0
9
$ANGDIR
70
0
0
ENDSEC
0
SECTION
2
BLOCKS
0
ENDSEC
9
$EXTMIN
10
-110.9
20
-56.405
30
0
9
$EXTMAX
10
110.9
20
55.401
30
15
0
SECTION
2
ENTITIES
0
LINE
8
1
62
3
10
85.005
20
39.502
30
15
11
85.005
21
39.502
31
15
0
LINE
8
1
62
3
10
85.005
20
39.502
30
15
11
85.005
21
39.502
31
0
0
LINE
8
1
62
2
10
85.005
20
39.502
30
0
11
85.001
21
39.5
31
0
0
ARC
8
1
62
1
10
90
20
39.5
30
0
40
4.999
50
180
51
0
0
ARC
8
1
62
1
10
90
20
39.5
30
0
40
4.999
50
0
51
180
0
LINE
8
1
62
2
10
85.001
20
39.5
30
0
11
85.005
21
39.498
31
0
0
LINE
8
1
62
3
10
85.005
20
39.498
30
0
11
85.005
21
39.498
31
5
0
LINE
8
1
62
3
10
85.005
20
39.498
30
5
11
67.005
21
39.502
31
5
0
LINE
8
1
62
3
10
67.005
20
39.502
30
5
11
67.005
21
39.502
31
0
0
LINE
8
1
62
2
10
67.005
20
39.502
30
0
11
67.001
21
39.5
31
0
0
ARC
8
1
62
1
10
72
20
39.5
30
0
40
4.999
50
180
51
0
0
ARC
8
1
62
1
10
72
20
39.5
30
0
40
4.999
50
0
51
180
0
LINE
8
1
62
2
10
67.001
20
39.5
30
0
11
67.005
21
39.498
31
0
0
LINE
8
1
62
3
10
67.005
20
39.498
30
0
11
67.005
21
39.498
31
5
0
LINE
8
1
62
3
10
67.005
20
39.498
30
5
11
49.005
21
39.502
31
5
0
LINE
8
1
62
3
10
49.005
20
39.502
30
5
11
49.005
21
39.502
31
0
0
LINE
8
1
62
2
10
49.005
20
39.502
30
0
11
49
21
39.5
31
0
0
ARC
8
1
62
1
10
54
20
39.5
30
0
40
5
50
180
51
0
0
ARC
8
1
62
1
10
54
20
39.5
30
0
40
5
50
0
51
180
0
LINE
8
1
62
2
10
49
20
39.5
30
0
11
49.005
21
39.498
31
0
0
LINE
8
1
62
3
10
49.005
20
39.498
30
0
11
49.005
21
39.498
31
5
0
LINE
8
1
62
3
10
49.005
20
39.498
30
5
11
31.005
21
39.502
31
5
0
LINE
8
1
62
3
10
31.005
20
39.502
30
5
11
31.005
21
39.502
31
0
0
LINE
8
1
62
2
10
31.005
20
39.502
30
0
11
31
21
39.5
31
0
0
ARC
8
1
62
1
10
36
20
39.5
30
0
40
5
50
180
51
0
0
ARC
8
1
62
1
10
36
20
39.5
30
0
40
5
50
0
51
180
0
LINE
8
1
62
2
10
31
20
39.5
30
0
11
31.005
21
39.498
31
0
0
LINE
8
1
62
3
10
31.005
20
39.498
30
0
11
31.005
21
39.498
31
5
0
LINE
8
1
62
3
10
31.005
20
39.498
30
5
11
13.005
21
39.502
31
5
0
LINE
8
1
62
3
10
13.005
20
39.502
30
5
11
13.005
21
39.502
31
0
0
LINE
8
1
62
2
10
13.005
20
39.502
30
0
11
13
21
39.5
31
0
0
ARC
8
1
62
1
10
18
20
39.5
30
0
40
5
50
180
51
0
0
ARC
8
1
62
1
10
18
20
39.5
30
0
40
5
50
0
51
180
0
LINE
8
1
62
2
10
13
20
39.5
30
0
11
13.005
21
39.498
31
0
0
LINE
8
1
62
3
10
13.005
20
39.498
30
0
11
13.005
21
39.498
31
5
0
LINE
8
1
62
3
10
13.005
20
39.498
30
5
11
-4.995
21
39.502
31
5
0
LINE
8
1
62
3
10
-4.995
20
39.502
30
5
11
-4.995
21
39.502
31
0
0
LINE
8
1
62
2
10
-4.995
20
39.502
30
0
11
-4.999
21
39.5
31
0
0
ARC
8
1
62
1
10
0
20
39.5
30
0
40
4.999
50
180
51
0
0
ARC
8
1
62
1
10
0
20
39.5
30
0
40
4.999
50
0
51
180
0
LINE
8
1
62
2
10
-4.999
20
39.5
30
0
11
-4.995
21
39.498
31
0
0
LINE
8
1
62
3
10
-4.995
20
39.498
30
0
11
-4.995
21
39.498
31
5
0
LINE
8
1
62
3
10
-4.995
20
39.498
30
5
11
-22.995
21
39.502
31
5
0
LINE
8
1
62
3
10
-22.995
20
39.502
30
5
11
-22.995
21
39.502
31
0
0
LINE
8
1
62
2
10
-22.995
20
39.502
30
0
11
-23
21
39.5
31
0
0
ARC
8
1
62
1
10
-18
20
39.5
30
0
40
5
50
180
51
0
0
ARC
8
1
62
1
10
-18
20
39.5
30
0
40
5
50
0
51
180
0
LINE
8
1
62
2
10
-23
20
39.5
30
0
11
-22.995
21
39.498
31
0
0
LINE
8
1
62
3
10
-22.995
20
39.498
30
0
11
-22.995
21
39.498
31
5
0
LINE
8
1
62
3
10
-22.995
20
39.498
30
5
11
-40.995
21
39.502
31
5
0
LINE
8
1
62
3
10
-40.995
20
39.502
30
5
11
-40.995
21
39.502
31
0
0
LINE
8
1
62
2
10
-40.995
20
39.502
30
0
11
-41
21
39.5
31
0
0
ARC
8
1
62
1
10
-36
20
39.5
30
0
40
5
50
180
51
0
0
ARC
8
1
62
1
10
-36
20
39.5
30
0
40
5
50
0
51
180
0
LINE
8
1
62
2
10
-41
20
39.5
30
0
11
-40.995
21
39.498
31
0
0
LINE
8
1
62
3
10
-40.995
20
39.498
30
0
11
-40.995
21
39.498
31
5
0
LINE
8
1
62
3
10
-40.995
20
39.498
30
5
11
-58.995
21
39.502
31
5
0
LINE
8
1
62
3
10
-58.995
20
39.502
30
5
11
-58.995
21
39.502
31
0
0
LINE
8
1
62
2
10
-58.995
20
39.502
30
0
11
-59
21
39.5
31
0
0
ARC
8
1
62
1
10
-54
20
39.5
30
0
40
5
50
180
51
0
0
ARC
8
1
62
1
10
-54
20
39.5
30
0
40
5
50
0
51
180
0
LINE
8
1
62
2
10
-59
20
39.5
30
0
11
-58.995
21
39.498
31
0
0
LINE
8
1
62
3
10
-58.995
20
39.498
30
0
11
-58.995
21
39.498
31
5
0
LINE
8
1
62
3
10
-58.995
20
39.498
30
5
11
-76.995
21
39.502
31
5
0
LINE
8
1
62
3
10
-76.995
20
39.502
30
5
11
-76.995
21
39.502
31
0
0
LINE
8
1
62
2
10
-76.995
20
39.502
30
0
11
-76.999
21
39.5
31
0
0
ARC
8
1
62
1
10
-72
20
39.5
30
0
40
4.999
50
180
51
0
0
ARC
8
1
62
1
10
-72
20
39.5
30
0
40
4.999
50
0
51
180
0
LINE
8
1
62
2
10
-76.999
20
39.5
30
0
11
-76.995
21
39.498
31
0
0
LINE
8
1
62
3
10
-76.995
20
39.498
30
0
11
-76.995
21
39.498
31
5
0
LINE
8
1
62
3
10
-76.995
20
39.498
30
5
11
-86.418
21
36.018
31
5
0
LINE
8
1
62
3
10
-86.418
20
36.018
30
5
11
-86.418
21
36.018
31
0
0
LINE
8
1
62
2
10
-86.418
20
36.018
30
0
11
-86.413
21
36.017
31
0
0
ARC
8
1
62
1
10
-90
20
39.5
30
0
40
5
50
-44.158796
51
135.841204
0
ARC
8
1
62
1
10
-90
20
39.5
30
0
40
5
50
135.841204
51
-44.158796
0
LINE
8
1
62
2
10
-86.413
20
36.017
30
0
11
-86.415
21
36.022
31
0
0
LINE
8
1
62
3
10
-86.415
20
36.022
30
0
11
-86.415
21
36.022
31
5
0
LINE
8
1
62
3
10
-86.415
20
36.022
30
5
11
-85.876
21
22.319
31
5
0
LINE
8
1
62
3
10
-85.876
20
22.319
30
5
11
-85.876
21
22.319
31
0
0
LINE
8
1
62
2
10
-85.876
20
22.319
30
0
11
-85.874
21
22.323
31
0
0
ARC
8
1
62
1
10
-90
20
19.5
30
0
40
5
50
34.380886
51
-145.619114
0
ARC
8
1
62
1
10
-90
20
19.5
30
0
40
5
50
-145.619114
51
34.380886
0
LINE
8
1
62
2
10
-85.874
20
22.323
30
0
11
-85.879
21
22.323
31
0
0
LINE
8
1
62
3
10
-85.879
20
22.323
30
0
11
-85.879
21
22.323
31
5
0
LINE
8
1
62
3
10
-85.879
20
22.323
30
5
11
-67.104
21
20.49
31
5
0
LINE
8
1
62
3
10
-67.104
20
20.49
30
5
11
-67.104
21
20.49
31
0
0
LINE
8
1
62
2
10
-67.104
20
20.49
30
0
11
-67.1
21
20.493
31
0
0
ARC
8
1
62
1
10
-72
20
19.5
30
0
40
5
50
11.460294
51
-168.539706
0
ARC
8
1
62
1
10
-72
20
19.5
30
0
40
5
50
-168.539706
51
11.460294
0
LINE
8
1
62
2
10
-67.1
20
20.493
30
0
11
-67.105
21
20.495
31
0
0
LINE
8
1
62
3
10
-67.105
20
20.495
30
0
11
-67.105
21
20.495
31
5
0
LINE
8
1
62
3
10
-67.105
20
20.495
30
5
11
-58.922
21
20.351
31
5
0
LINE
8
1
62
3
10
-58.922
20
20.351
30
5
11
-58.922
21
20.351
31
0
0
LINE
8
1
62
2
10
-58.922
20
20.351
30
0
11
-58.927
21
20.349
31
0
0
ARC
8
1
62
1
10
-54
20
19.5
30
0
40
5
50
170.222125
51
-9.777875
0
ARC
8
1
62
1
10
-54
20
19.5
30
0
40
5
50
-9.777875
51
170.222125
0
LINE
8
1
62
2
10
-58.927
20
20.349
30
0
11
-58.923
21
20.346
31
0
0
LINE
8
1
62
3
10
-58.923
20
20.346
30
0
11
-58.923
21
20.346
31
5
0
LINE
8
1
62
3
10
-58.923
20
20.346
30
5
11
-31.005
21
19.497
31
5
0
LINE
8
1
62
3
10
-31.005
20
19.497
30
5
11
-31.005
21
19.497
31
0
0
LINE
8
1
62
2
10
-31.005
20
19.497
30
0
11
-31
21
19.5
31
0
0
ARC
8
1
62
1
10
-36
20
19.5
30
0
40
5
50
0
51
180
0
ARC
8
1
62
1
10
-36
20
19.5
30
0
40
5
50
180
51
0
0
LINE
8
1
62
2
10
-31
20
19.5
30
0
11
-31.005
21
19.503
31
0
0
LINE
8
1
62
3
10
-31.005
20
19.503
30
0
11
-31.005
21
19.503
31
5
0
LINE
8
1
62
3
10
-31.005
20
19.503
30
5
11
-22.995
21
19.503
31
5
0
LINE
8
1
62
3
10
-22.995
20
19.503
30
5
11
-22.995
21
19.503
31
0
0
LINE
8
1
62
2
10
-22.995
20
19.503
30
0
11
-23
21
19.5
31
0
0
ARC
8
1
62
1
10
-18
20
19.5
30
0
40
5
50
180
51
0
0
ARC
8
1
62
1
10
-18
20
19.5
30
0
40
5
50
0
51
180
0
LINE
8
1
62
2
10
-23
20
19.5
30
0
11
-22.995
21
19.497
31
0
0
LINE
8
1
62
3
10
-22.995
20
19.497
30
0
11
-22.995
21
19.497
31
5
0
LINE
8
1
62
3
10
-22.995
20
19.497
30
5
11
4.995
21
19.497
31
5
0
LINE
8
1
62
3
10
4.995
20
19.497
30
5
11
4.995
21
19.497
31
0
0
LINE
8
1
62
2
10
4.995
20
19.497
30
0
11
4.999
21
19.5
31
0
0
ARC
8
1
62
1
10
0
20
19.5
30
0
40
4.999
50
0
51
180
0
ARC
8
1
62
1
10
0
20
19.5
30
0
40
4.999
50
180
51
0
0
LINE
8
1
62
2
10
4.999
20
19.5
30
0
11
4.995
21
19.503
31
0
0
LINE
8
1
62
3
10
4.995
20
19.503
30
0
11
4.995
21
19.503
31
5
0
LINE
8
1
62
3
10
4.995
20
19.503
30
5
11
22.995
21
19.497
31
5
0
LINE
8
1
62
3
10
22.995
20
19.497
30
5
11
22.995
21
19.497
31
0
0
LINE
8
1
62
2
10
22.995
20
19.497
30
0
11
23
21
19.5
31
0
0
ARC
8
1
62
1
10
18
20
19.5
30
0
40
5
50
0
51
180
0
ARC
8
1
62
1
10
18
20
19.5
30
0
40
5
50
180
51
0
0
LINE
8
1
62
2
10
23
20
19.5
30
0
11
22.995
21
19.503
31
0
0
LINE
8
1
62
3
10
22.995
20
19.503
30
0
11
22.995
21
19.503
31
5
0
LINE
8
1
62
3
10
22.995
20
19.503
30
5
11
40.995
21
19.497
31
5
0
LINE
8
1
62
3
10
40.995
20
19.497
30
5
11
40.995
21
19.497
31
0
0
LINE
8
1
62
2
10
40.995
20
19.497
30
0
11
41
21
19.5
31
0
0
ARC
8
1
62
1
10
36
20
19.5
30
0
40
5
50
0
51
180
0
ARC
8
1
62
1
10
36
20
19.5
30
0
40
5
50
180
51
0
0
LINE
8
1
62
2
10
41
20
19.5
30
0
11
40.995
21
19.503
31
0
0
LINE
8
1
62
3
10
40.995
20
19.503
30
0
11
40.995
21
19.503
31
5
0
LINE
8
1
62
3
10
40.995
20
19.503
30
5
11
58.995
21
19.497
31
5
0
LINE
8
1
62
3
10
58.995
20
19.497
30
5
11
58.995
21
19.497
31
0
0
LINE
8
1
62
2
10
58.995
20
19.497
30
0
11
59
21
19.5
31
0
0
ARC
8
1
62
1
10
54
20
19.5
30
0
40
5
50
0
51
180
0
ARC
8
1
62
1
10
54
20
19.5
30
0
40
5
50
180
51
0
0
LINE
8
1
62
2
10
59
20
19.5
30
0
11
58.995
21
19.503
31
0
0
LINE
8
1
62
3
10
58.995
20
19.503
30
0
11
58.995
21
19.503
31
5
0
LINE
8
1
62
3
10
58.995
20
19.503
30
5
11
76.995
21
19.497
31
5
0
LINE
8
1
62
3
10
76.995
20
19.497
30
5
11
76.995
21
19.497
31
0
0
LINE
8
1
62
2
10
76.995
20
19.497
30
0
11
76.999
21
19.5
31
0
0
ARC
8
1
62
1
10
72
20
19.5
30
0
40
4.999
50
0
51
180
0
ARC
8
1
62
1
10
72
20
19.5
30
0
40
4.999
50
180
51
0
0
LINE
8
1
62
2
10
76.999
20
19.5
30
0
11
76.995
21
19.503
31
0
0
LINE
8
1
62
3
10
76.995
20
19.503
30
0
11
76.995
21
19.503
31
5
0
LINE
8
1
62
3
10
76.995
20
19.503
30
5
11
86.518
21
15.918
31
5
0
LINE
8
1
62
3
10
86.518
20
15.918
30
5
11
86.518
21
15.918
31
0
0
LINE
8
1
62
2
10
86.518
20
15.918
30
0
11
86.517
21
15.913
31
0
0
ARC
8
1
62
1
10
90
20
19.5
30
0
40
4.999
50
-134.158765
51
45.841235
0
ARC
8
1
62
1
10
90
20
19.5
30
0
40
4.999
50
45.841235
51
-134.158765
0
LINE
8
1
62
2
10
86.517
20
15.913
30
0
11
86.522
21
15.915
31
0
0
LINE
8
1
62
3
10
86.522
20
15.915
30
0
11
86.522
21
15.915
31
5
0
LINE
8
1
62
3
10
86.522
20
15.915
30
5
11
86.418
21
2.982
31
5
0
LINE
8
1
62
3
10
86.418
20
2.982
30
5
11
86.418
21
2.982
31
0
0
LINE
8
1
62
2
10
86.418
20
2.982
30
0
11
86.413
21
2.983
31
0
0
ARC
8
1
62
1
10
90
20
-0.5
30
0
40
4.999
50
135.841208
51
-44.158792
0
ARC
8
1
62
1
10
90
20
-0.5
30
0
40
4.999
50
-44.158792
51
135.841208
0
LINE
8
1
62
2
10
86.413
20
2.983
30
0
11
86.415
21
2.978
31
0
0
LINE
8
1
62
3
10
86.415
20
2.978
30
0
11
86.415
21
2.978
31
5
0
LINE
8
1
62
3
10
86.415
20
2.978
30
5
11
67.345
21
1.312
31
5
0
LINE
8
1
62
3
10
67.345
20
1.312
30
5
11
67.345
21
1.312
31
0
0
LINE
8
1
62
2
10
67.345
20
1.312
30
0
11
67.34
21
1.311
31
0
0
ARC
8
1
62
1
10
72
20
-0.5
30
0
40
5
50
158.761826
51
-21.238174
0
ARC
8
1
62
1
10
72
20
-0.5
30
0
40
5
50
-21.238174
51
158.761826
0
LINE
8
1
62
2
10
67.34
20
1.311
30
0
11
67.343
21
1.307
31
0
0
LINE
8
1
62
3
10
67.343
20
1.307
30
0
11
67.343
21
1.307
31
5
0
LINE
8
1
62
3
10
67.343
20
1.307
30
5
11
49.078
21
0.351
31
5
0
LINE
8
1
62
3
10
49.078
20
0.351
30
5
11
49.078
21
0.351
31
0
0
LINE
8
1
62
2
10
49.078
20
0.351
30
0
11
49.073
21
0.349
31
0
0
ARC
8
1
62
1
10
54
20
-0.5
30
0
40
5
50
170.222116
51
-9.777884
0
ARC
8
1
62
1
10
54
20
-0.5
30
0
40
5
50
-9.777884
51
170.222116
0
LINE
8
1
62
2
10
49.073
20
0.349
30
0
11
49.077
21
0.346
31
0
0
LINE
8
1
62
3
10
49.077
20
0.346
30
0
11
49.077
21
0.346
31
5
0
LINE
8
1
62
3
10
49.077
20
0.346
30
5
11
31.005
21
-0.498
31
5
0
LINE
8
1
62
3
10
31.005
20
-0.498
30
5
11
31.005
21
-0.498
31
0
0
LINE
8
1
62
2
10
31.005
20
-0.498
30
0
11
31
21
-0.5
31
0
0
ARC
8
1
62
1
10
36
20
-0.5
30
0
40
5
50
180
51
0
0
ARC
8
1
62
1
10
36
20
-0.5
30
0
40
5
50
0
51
180
0
LINE
8
1
62
2
10
31
20
-0.5
30
0
11
31.005
21
-0.502
31
0
0
LINE
8
1
62
3
10
31.005
20
-0.502
30
0
11
31.005
21
-0.502
31
5
0
LINE
8
1
62
3
10
31.005
20
-0.502
30
5
11
22.995
21
-0.502
31
5
0
LINE
8
1
62
3
10
22.995
20
-0.502
30
5
11
22.995
21
-0.502
31
0
0
LINE
8
1
62
2
10
22.995
20
-0.502
30
0
11
23
21
-0.5
31
0
0
ARC
8
1
62
1
10
18
20
-0.5
30
0
40
5
50
0
51
180
0
ARC
8
1
62
1
10
18
20
-0.5
30
0
40
5
50
180
51
0
0
LINE
8
1
62
2
10
23
20
-0.5
30
0
11
22.995
21
-0.498
31
0
0
LINE
8
1
62
3
10
22.995
20
-0.498
30
0
11
22.995
21
-0.498
31
5
0
LINE
8
1
62
3
10
22.995
20
-0.498
30
5
11
-4.995
21
-0.498
31
5
0
LINE
8
1
62
3
10
-4.995
20
-0.498
30
5
11
-4.995
21
-0.498
31
0
0
LINE
8
1
62
2
10
-4.995
20
-0.498
30
0
11
-4.999
21
-0.5
31
0
0
ARC
8
1
62
1
10
0
20
-0.5
30
0
40
4.999
50
180
51
0
0
ARC
8
1
62
1
10
0
20
-0.5
30
0
40
4.999
50
0
51
180
0
LINE
8
1
62
2
10
-4.999
20
-0.5
30
0
11
-4.995
21
-0.502
31
0
0
LINE
8
1
62
3
10
-4.995
20
-0.502
30
0
11
-4.995
21
-0.502
31
5
0
LINE
8
1
62
3
10
-4.995
20
-0.502
30
5
11
-22.995
21
-0.498
31
5
0
LINE
8
1
62
3
10
-22.995
20
-0.498
30
5
11
-22.995
21
-0.498
31
0
0
LINE
8
1
62
2
10
-22.995
20
-0.498
30
0
11
-23
21
-0.5
31
0
0
ARC
8
1
62
1
10
-18
20
-0.5
30
0
40
5
50
180
51
0
0
ARC
8
1
62
1
10
-18
20
-0.5
30
0
40
5
50
0
51
180
0
LINE
8
1
62
2
10
-23
20
-0.5
30
0
11
-22.995
21
-0.502
31
0
0
LINE
8
1
62
3
10
-22.995
20
-0.502
30
0
11
-22.995
21
-0.502
31
5
0
LINE
8
1
62
3
10
-22.995
20
-0.502
30
5
11
-40.995
21
-0.498
31
5
0
LINE
8
1
62
3
10
-40.995
20
-0.498
30
5
11
-40.995
21
-0.498
31
0
0
LINE
8
1
62
2
10
-40.995
20
-0.498
30
0
11
-41
21
-0.5
31
0
0
ARC
8
1
62
1
10
-36
20
-0.5
30
0
40
5
50
180
51
0
0
ARC
8
1
62
1
10
-36
20
-0.5
30
0
40
5
50
0
51
180
0
LINE
8
1
62
2
10
-41
20
-0.5
30
0
11
-40.995
21
-0.502
31
0
0
LINE
8
1
62
3
10
-40.995
20
-0.502
30
0
11
-40.995
21
-0.502
31
5
0
LINE
8
1
62
3
10
-40.995
20
-0.502
30
5
11
-58.995
21
-0.498
31
5
0
LINE
8
1
62
3
10
-58.995
20
-0.498
30
5
11
-58.995
21
-0.498
31
0
0
LINE
8
1
62
2
10
-58.995
20
-0.498
30
0
11
-59
21
-0.5
31
0
0
ARC
8
1
62
1
10
-54
20
-0.5
30
0
40
5
50
180
51
0
0
ARC
8
1
62
1
10
-54
20
-0.5
30
0
40
5
50
0
51
180
0
LINE
8
1
62
2
10
-59
20
-0.5
30
0
11
-58.995
21
-0.502
31
0
0
LINE
8
1
62
3
10
-58.995
20
-0.502
30
0
11
-58.995
21
-0.502
31
5
0
LINE
8
1
62
3
10
-58.995
20
-0.502
30
5
11
-76.995
21
-0.498
31
5
0
LINE
8
1
62
3
10
-76.995
20
-0.498
30
5
11
-76.995
21
-0.498
31
0
0
LINE
8
1
62
2
10
-76.995
20
-0.498
30
0
11
-76.999
21
-0.5
31
0
0
ARC
8
1
62
1
10
-72
20
-0.5
30
0
40
4.999
50
180
51
0
0
ARC
8
1
62
1
10
-72
20
-0.5
30
0
40
4.999
50
0
51
180
0
LINE
8
1
62
2
10
-76.999
20
-0.5
30
0
11
-76.995
21
-0.502
31
0
0
LINE
8
1
62
3
10
-76.995
20
-0.502
30
0
11
-76.995
21
-0.502
31
5
0
LINE
8
1
62
3
10
-76.995
20
-0.502
30
5
11
-86.418
21
-3.982
31
5
0
LINE
8
1
62
3
10
-86.418
20
-3.982
30
5
11
-86.418
21
-3.982
31
0
0
LINE
8
1
62
2
10
-86.418
20
-3.982
30
0
11
-86.413
21
-3.983
31
0
0
ARC
8
1
62
1
10
-90
20
-0.5
30
0
40
4.999
50
-44.158792
51
135.841208
0
ARC
8
1
62
1
10
-90
20
-0.5
30
0
40
4.999
50
135.841208
51
-44.158792
0
LINE
8
1
62
2
10
-86.413
20
-3.983
30
0
11
-86.415
21
-3.978
31
0
0
LINE
8
1
62
3
10
-86.415
20
-3.978
30
0
11
-86.415
21
-3.978
31
5
0
LINE
8
1
62
3
10
-86.415
20
-3.978
30
5
11
-85.876
21
-17.681
31
5
0
LINE
8
1
62
3
10
-85.876
20
-17.681
30
5
11
-85.876
21
-17.681
31
0
0
LINE
8
1
62
2
10
-85.876
20
-17.681
30
0
11
-85.874
21
-17.677
31
0
0
ARC
8
1
62
1
10
-90
20
-20.5
30
0
40
5
50
34.380886
51
-145.619114
0
ARC
8
1
62
1
10
-90
20
-20.5
30
0
40
5
50
-145.619114
51
34.380886
0
LINE
8
1
62
2
10
-85.874
20
-17.677
30
0
11
-85.879
21
-17.677
31
0
0
LINE
8
1
62
3
10
-85.879
20
-17.677
30
0
11
-85.879
21
-17.677
31
5
0
LINE
8
1
62
3
10
-85.879
20
-17.677
30
5
11
-67.104
21
-19.51
31
5
0
LINE
8
1
62
3
10
-67.104
20
-19.51
30
5
11
-67.104
21
-19.51
31
0
0
LINE
8
1
62
2
10
-67.104
20
-19.51
30
0
11
-67.1
21
-19.507
31
0
0
ARC
8
1
62
1
10
-72
20
-20.5
30
0
40
5
50
11.460294
51
-168.539706
0
ARC
8
1
62
1
10
-72
20
-20.5
30
0
40
5
50
-168.539706
51
11.460294
0
LINE
8
1
62
2
10
-67.1
20
-19.507
30
0
11
-67.105
21
-19.505
31
0
0
LINE
8
1
62
3
10
-67.105
20
-19.505
30
0
11
-67.105
21
-19.505
31
5
0
LINE
8
1
62
3
10
-67.105
20
-19.505
30
5
11
-58.922
21
-19.649
31
5
0
LINE
8
1
62
3
10
-58.922
20
-19.649
30
5
11
-58.922
21
-19.649
31
0
0
LINE
8
1
62
2
10
-58.922
20
-19.649
30
0
11
-58.927
21
-19.651
31
0
0
ARC
8
1
62
1
10
-54
20
-20.5
30
0
40
5
50
170.222125
51
-9.777875
0
ARC
8
1
62
1
10
-54
20
-20.5
30
0
40
5
50
-9.777875
51
170.222125
0
LINE
8
1
62
2
10
-58.927
20
-19.651
30
0
11
-58.923
21
-19.654
31
0
0
LINE
8
1
62
3
10
-58.923
20
-19.654
30
0
11
-58.923
21
-19.654
31
5
0
LINE
8
1
62
3
10
-58.923
20
-19.654
30
5
11
-31.005
21
-20.503
31
5
0
LINE
8
1
62
3
10
-31.005
20
-20.503
30
5
11
-31.005
21
-20.503
31
0
0
LINE
8
1
62
2
10
-31.005
20
-20.503
30
0
11
-31
21
-20.5
31
0
0
ARC
8
1
62
1
10
-36
20
-20.5
30
0
40
5
50
0
51
180
0
ARC
8
1
62
1
10
-36
20
-20.5
30
0
40
5
50
180
51
0
0
LINE
8
1
62
2
10
-31
20
-20.5
30
0
11
-31.005
21
-20.497
31
0
0
LINE
8
1
62
3
10
-31.005
20
-20.497
30
0
11
-31.005
21
-20.497
31
5
0
LINE
8
1
62
3
10
-31.005
20
-20.497
30
5
11
-13.005
21
-20.503
31
5
0
LINE
8
1
62
3
10
-13.005
20
-20.503
30
5
11
-13.005
21
-20.503
31
0
0
LINE
8
1
62
2
10
-13.005
20
-20.503
30
0
11
-13
21
-20.5
31
0
0
ARC
8
1
62
1
10
-18
20
-20.5
30
0
40
5
50
0
51
180
0
ARC
8
1
62
1
10
-18
20
-20.5
30
0
40
5
50
180
51
0
0
LINE
8
1
62
2
10
-13
20
-20.5
30
0
11
-13.005
21
-20.497
31
0
0
LINE
8
1
62
3
10
-13.005
20
-20.497
30
0
11
-13.005
21
-20.497
31
5
0
LINE
8
1
62
3
10
-13.005
20
-20.497
30
5
11
4.995
21
-20.503
31
5
0
LINE
8
1
62
3
10
4.995
20
-20.503
30
5
11
4.995
21
-20.503
31
0
0
LINE
8
1
62
2
10
4.995
20
-20.503
30
0
11
4.999
21
-20.5
31
0
0
ARC
8
1
62
1
10
0
20
-20.5
30
0
40
4.999
50
0
51
180
0
ARC
8
1
62
1
10
0
20
-20.5
30
0
40
4.999
50
180
51
0
0
LINE
8
1
62
2
10
4.999
20
-20.5
30
0
11
4.995
21
-20.497
31
0
0
LINE
8
1
62
3
10
4.995
20
-20.497
30
0
11
4.995
21
-20.497
31
5
0
LINE
8
1
62
3
10
4.995
20
-20.497
30
5
11
22.995
21
-20.503
31
5
0
LINE
8
1
62
3
10
22.995
20
-20.503
30
5
11
22.995
21
-20.503
31
0
0
LINE
8
1
62
2
10
22.995
20
-20.503
30
0
11
23
21
-20.5
31
0
0
ARC
8
1
62
1
10
18
20
-20.5
30
0
40
5
50
0
51
180
0
ARC
8
1
62
1
10
18
20
-20.5
30
0
40
5
50
180
51
0
0
LINE
8
1
62
2
10
23
20
-20.5
30
0
11
22.995
21
-20.497
31
0
0
LINE
8
1
62
3
10
22.995
20
-20.497
30
0
11
22.995
21
-20.497
31
5
0
LINE
8
1
62
3
10
22.995
20
-20.497
30
5
11
40.995
21
-20.503
31
5
0
LINE
8
1
62
3
10
40.995
20
-20.503
30
5
11
40.995
21
-20.503
31
0
0
LINE
8
1
62
2
10
40.995
20
-20.503
30
0
11
41
21
-20.5
31
0
0
ARC
8
1
62
1
10
36
20
-20.5
30
0
40
5
50
0
51
180
0
ARC
8
1
62
1
10
36
20
-20.5
30
0
40
5
50
180
51
0
0
LINE
8
1
62
2
10
41
20
-20.5
30
0
11
40.995
21
-20.497
31
0
0
LINE
8
1
62
3
10
40.995
20
-20.497
30
0
11
40.995
21
-20.497
31
5
0
LINE
8
1
62
3
10
40.995
20
-20.497
30
5
11
58.995
21
-20.503
31
5
0
LINE
8
1
62
3
10
58.995
20
-20.503
30
5
11
58.995
21
-20.503
31
0
0
LINE
8
1
62
2
10
58.995
20
-20.503
30
0
11
59
21
-20.5
31
0
0
ARC
8
1
62
1
10
54
20
-20.5
30
0
40
5
50
0
51
180
0
ARC
8
1
62
1
10
54
20
-20.5
30
0
40
5
50
180
51
0
0
LINE
8
1
62
2
10
59
20
-20.5
30
0
11
58.995
21
-20.497
31
0
0
LINE
8
1
62
3
10
58.995
20
-20.497
30
0
11
58.995
21
-20.497
31
5
0
LINE
8
1
62
3
10
58.995
20
-20.497
30
5
11
76.995
21
-20.503
31
5
0
LINE
8
1
62
3
10
76.995
20
-20.503
30
5
11
76.995
21
-20.503
31
0
0
LINE
8
1
62
2
10
76.995
20
-20.503
30
0
11
76.999
21
-20.5
31
0
0
ARC
8
1
62
1
10
72
20
-20.5
30
0
40
4.999
50
0
51
180
0
ARC
8
1
62
1
10
72
20
-20.5
30
0
40
4.999
50
180
51
0
0
LINE
8
1
62
2
10
76.999
20
-20.5
30
0
11
76.995
21
-20.497
31
0
0
LINE
8
1
62
3
10
76.995
20
-20.497
30
0
11
76.995
21
-20.497
31
5
0
LINE
8
1
62
3
10
76.995
20
-20.497
30
5
11
86.518
21
-24.082
31
5
0
LINE
8
1
62
3
10
86.518
20
-24.082
30
5
11
86.518
21
-24.082
31
0
0
LINE
8
1
62
2
10
86.518
20
-24.082
30
0
11
86.517
21
-24.087
31
0
0
ARC
8
1
62
1
10
90
20
-20.5
30
0
40
4.999
50
-134.158765
51
45.841235
0
ARC
8
1
62
1
10
90
20
-20.5
30
0
40
4.999
50
45.841235
51
-134.158765
0
LINE
8
1
62
2
10
86.517
20
-24.087
30
0
11
86.522
21
-24.085
31
0
0
LINE
8
1
62
3
10
86.522
20
-24.085
30
0
11
86.522
21
-24.085
31
5
0
LINE
8
1
62
3
10
86.522
20
-24.085
30
5
11
86.418
21
-37.018
31
5
0
LINE
8
1
62
3
10
86.418
20
-37.018
30
5
11
86.418
21
-37.018
31
0
0
LINE
8
1
62
2
10
86.418
20
-37.018
30
0
11
86.413
21
-37.017
31
0
0
ARC
8
1
62
1
10
90
20
-40.5
30
0
40
5
50
135.841204
51
-44.158796
0
ARC
8
1
62
1
10
90
20
-40.5
30
0
40
5
50
-44.158796
51
135.841204
0
LINE
8
1
62
2
10
86.413
20
-37.017
30
0
11
86.415
21
-37.022
31
0
0
LINE
8
1
62
3
10
86.415
20
-37.022
30
0
11
86.415
21
-37.022
31
5
0
LINE
8
1
62
3
10
86.415
20
-37.022
30
5
11
67.345
21
-38.688
31
5
0
LINE
8
1
62
3
10
67.345
20
-38.688
30
5
11
67.345
21
-38.688
31
0
0
LINE
8
1
62
2
10
67.345
20
-38.688
30
0
11
67.34
21
-38.689
31
0
0
ARC
8
1
62
1
10
72
20
-40.5
30
0
40
5
50
158.761845
51
-21.238155
0
ARC
8
1
62
1
10
72
20
-40.5
30
0
40
5
50
-21.238155
51
158.761845
0
LINE
8
1
62
2
10
67.34
20
-38.689
30
0
11
67.343
21
-38.693
31
0
0
LINE
8
1
62
3
10
67.343
20
-38.693
30
0
11
67.343
21
-38.693
31
5
0
LINE
8
1
62
3
10
67.343
20
-38.693
30
5
11
49.078
21
-39.649
31
5
0
LINE
8
1
62
3
10
49.078
20
-39.649
30
5
11
49.078
21
-39.649
31
0
0
LINE
8
1
62
2
10
49.078
20
-39.649
30
0
11
49.073
21
-39.651
31
0
0
ARC
8
1
62
1
10
54
20
-40.5
30
0
40
5
50
170.222125
51
-9.777875
0
ARC
8
1
62
1
10
54
20
-40.5
30
0
40
5
50
-9.777875
51
170.222125
0
LINE
8
1
62
2
10
49.073
20
-39.651
30
0
11
49.077
21
-39.654
31
0
0
LINE
8
1
62
3
10
49.077
20
-39.654
30
0
11
49.077
21
-39.654
31
5
0
LINE
8
1
62
3
10
49.077
20
-39.654
30
5
11
31.005
21
-40.498
31
5
0
LINE
8
1
62
3
10
31.005
20
-40.498
30
5
11
31.005
21
-40.498
31
0
0
LINE
8
1
62
2
10
31.005
20
-40.498
30
0
11
31
21
-40.5
31
0
0
ARC
8
1
62
1
10
36
20
-40.5
30
0
40
5
50
180
51
0
0
ARC
8
1
62
1
10
36
20
-40.5
30
0
40
5
50
0
51
180
0
LINE
8
1
62
2
10
31
20
-40.5
30
0
11
31.005
21
-40.502
31
0
0
LINE
8
1
62
3
10
31.005
20
-40.502
30
0
11
31.005
21
-40.502
31
5
0
LINE
8
1
62
3
10
31.005
20
-40.502
30
5
11
13.005
21
-40.498
31
5
0
LINE
8
1
62
3
10
13.005
20
-40.498
30
5
11
13.005
21
-40.498
31
0
0
LINE
8
1
62
2
10
13.005
20
-40.498
30
0
11
13
21
-40.5
31
0
0
ARC
8
1
62
1
10
18
20
-40.5
30
0
40
5
50
180
51
0
0
ARC
8
1
62
1
10
18
20
-40.5
30
0
40
5
50
0
51
180
0
LINE
8
1
62
2
10
13
20
-40.5
30
0
11
13.005
21
-40.502
31
0
0
LINE
8
1
62
3
10
13.005
20
-40.502
30
0
11
13.005
21
-40.502
31
5
0
LINE
8
1
62
3
10
13.005
20
-40.502
30
5
11
-4.995
21
-40.498
31
5
0
LINE
8
1
62
3
10
-4.995
20
-40.498
30
5
11
-4.995
21
-40.498
31
0
0
LINE
8
1
62
2
10
-4.995
20
-40.498
30
0
11
-4.999
21
-40.5
31
0
0
ARC
8
1
62
1
10
0
20
-40.5
30
0
40
4.999
50
180
51
0
0
ARC
8
1
62
1
10
0
20
-40.5
30
0
40
4.999
50
0
51
180
0
LINE
8
1
62
2
10
-4.999
20
-40.5
30
0
11
-4.995
21
-40.502
31
0
0
LINE
8
1
62
3
10
-4.995
20
-40.502
30
0
11
-4.995
21
-40.502
31
5
0
LINE
8
1
62
3
10
-4.995
20
-40.502
30
5
11
-22.995
21
-40.498
31
5
0
LINE
8
1
62
3
10
-22.995
20
-40.498
30
5
11
-22.995
21
-40.498
31
0
0
LINE
8
1
62
2
10
-22.995
20
-40.498
30
0
11
-23
21
-40.5
31
0
0
ARC
8
1
62
1
10
-18
20
-40.5
30
0
40
5
50
180
51
0
0
ARC
8
1
62
1
10
-18
20
-40.5
30
0
40
5
50
0
51
180
0
LINE
8
1
62
2
10
-23
20
-40.5
30
0
11
-22.995
21
-40.502
31
0
0
LINE
8
1
62
3
10
-22.995
20
-40.502
30
0
11
-22.995
21
-40.502
31
5
0
LINE
8
1
62
3
10
-22.995
20
-40.502
30
5
11
-40.995
21
-40.498
31
5
0
LINE
8
1
62
3
10
-40.995
20
-40.498
30
5
11
-40.995
21
-40.498
31
0
0
LINE
8
1
62
2
10
-40.995
20
-40.498
30
0
11
-41
21
-40.5
31
0
0
ARC
8
1
62
1
10
-36
20
-40.5
30
0
40
5
50
180
51
0
0
ARC
8
1
62
1
10
-36
20
-40.5
30
0
40
5
50
0
51
180
0
LINE
8
1
62
2
10
-41
20
-40.5
30
0
11
-40.995
21
-40.502
31
0
0
LINE
8
1
62
3
10
-40.995
20
-40.502
30
0
11
-40.995
21
-40.502
31
5
0
LINE
8
1
62
3
10
-40.995
20
-40.502
30
5
11
-58.995
21
-40.498
31
5
0
LINE
8
1
62
3
10
-58.995
20
-40.498
30
5
11
-58.995
21
-40.498
31
0
0
LINE
8
1
62
2
10
-58.995
20
-40.498
30
0
11
-59
21
-40.5
31
0
0
ARC
8
1
62
1
10
-54
20
-40.5
30
0
40
5
50
180
51
0
0
ARC
8
1
62
1
10
-54
20
-40.5
30
0
40
5
50
0
51
180
0
LINE
8
1
62
2
10
-59
20
-40.5
30
0
11
-58.995
21
-40.502
31
0
0
LINE
8
1
62
3
10
-58.995
20
-40.502
30
0
11
-58.995
21
-40.502
31
5
0
LINE
8
1
62
3
10
-58.995
20
-40.502
30
5
11
-76.995
21
-40.498
31
5
0
LINE
8
1
62
3
10
-76.995
20
-40.498
30
5
11
-76.995
21
-40.498
31
0
0
LINE
8
1
62
2
10
-76.995
20
-40.498
30
0
11
-76.999
21
-40.5
31
0
0
ARC
8
1
62
1
10
-72
20
-40.5
30
0
40
4.999
50
180
51
0
0
ARC
8
1
62
1
10
-72
20
-40.5
30
0
40
4.999
50
0
51
180
0
LINE
8
1
62
2
10
-76.999
20
-40.5
30
0
11
-76.995
21
-40.502
31
0
0
LINE
8
1
62
3
10
-76.995
20
-40.502
30
0
11
-76.995
21
-40.502
31
5
0
LINE
8
1
62
3
10
-76.995
20
-40.502
30
5
11
-85.005
21
-40.502
31
5
0
LINE
8
1
62
3
10
-85.005
20
-40.502
30
5
11
-85.005
21
-40.502
31
0
0
LINE
8
1
62
2
10
-85.005
20
-40.502
30
0
11
-85.001
21
-40.5
31
0
0
ARC
8
1
62
1
10
-90
20
-40.5
30
0
40
4.999
50
0
51
180
0
ARC
8
1
62
1
10
-90
20
-40.5
30
0
40
4.999
50
180
51
0
0
LINE
8
1
62
2
10
-85.001
20
-40.5
30
0
11
-85.005
21
-40.498
31
0
0
LINE
8
1
62
3
10
-85.005
20
-40.498
30
0
11
-85.005
21
-40.498
31
5
0
LINE
8
1
62
3
10
-85.005
20
-40.498
30
5
11
-84.998
21
-56.405
31
5
0
LINE
8
1
62
3
10
-84.998
20
-56.405
30
5
11
-84.998
21
-56.405
31
0
0
LINE
8
1
62
2
10
-84.998
20
-56.405
30
0
11
-85.001
21
-56.401
31
0
0
LINE
8
1
62
1
10
-85.001
20
-56.401
30
0
11
-105.9
21
-56.401
31
0
0
LINE
8
1
62
1
10
-105.9
20
-56.401
30
0
11
-105.9
21
-56.4
31
0
0
LINE
8
1
62
1
10
-105.9
20
-56.4
30
0
11
-105.9
21
-25.5
31
0
0
ARC
8
1
62
1
10
-105.9
20
-20.5
30
0
40
5
50
180
51
-90.005682
0
LINE
8
1
62
1
10
-110.9
20
-20.5
30
0
11
-110.9
21
19.5
31
0
0
ARC
8
1
62
1
10
-105.9
20
19.5
30
0
40
5
50
90.005682
51
180
0
LINE
8
1
62
1
10
-105.9
20
24.5
30
0
11
-105.9
21
55.4
31
0
0
LINE
8
1
62
1
10
-105.9
20
55.4
30
0
11
-105.9
21
55.401
31
0
0
LINE
8
1
62
1
10
-105.9
20
55.401
30
0
11
-25
21
55.401
31
0
0
LINE
8
1
62
1
10
-25
20
55.401
30
0
11
-25
21
55.4
31
0
0
LINE
8
1
62
1
10
-25
20
55.4
30
0
11
-25
21
49.5
31
0
0
LINE
8
1
62
1
10
-25
20
49.5
30
0
11
25
21
49.5
31
0
0
LINE
8
1
62
1
10
25
20
49.5
30
0
11
25
21
55.4
31
0
0
LINE
8
1
62
1
10
25
20
55.4
30
0
11
25
21
55.401
31
0
0
LINE
8
1
62
1
10
25
20
55.401
30
0
11
105.9
21
55.401
31
0
0
LINE
8
1
62
1
10
105.9
20
55.401
30
0
11
105.9
21
55.4
31
0
0
LINE
8
1
62
1
10
105.9
20
55.4
30
0
11
105.9
21
24.5
31
0
0
ARC
8
1
62
1
10
105.9
20
19.5
30
0
40
5
50
0
51
89.994318
0
LINE
8
1
62
1
10
110.9
20
19.5
30
0
11
110.9
21
-20.5
31
0
0
ARC
8
1
62
1
10
105.9
20
-20.5
30
0
40
5
50
-89.994318
51
0
0
LINE
8
1
62
1
10
105.9
20
-25.5
30
0
11
105.9
21
-56.4
31
0
0
LINE
8
1
62
1
10
105.9
20
-56.4
30
0
11
105.9
21
-56.401
31
0
0
LINE
8
1
62
1
10
105.9
20
-56.401
30
0
11
25
21
-56.401
31
0
0
LINE
8
1
62
1
10
25
20
-56.401
30
0
11
25
21
-56.4
31
0
0
LINE
8
1
62
1
10
25
20
-56.4
30
0
11
25
21
-50.5
31
0
0
LINE
8
1
62
1
10
25
20
-50.5
30
0
11
-25
21
-50.5
31
0
0
LINE
8
1
62
1
10
-25
20
-50.5
30
0
11
-25
21
-56.4
31
0
0
LINE
8
1
62
1
10
-25
20
-56.4
30
0
11
-25
21
-56.401
31
0
0
LINE
8
1
62
1
10
-25
20
-56.401
30
0
11
-85.001
21
-56.401
31
0
0
LINE
8
1
62
2
10
-85.001
20
-56.401
30
0
11
-85.003
21
-56.405
31
0
0
LINE
8
1
62
3
10
-85.003
20
-56.405
30
0
11
-85.003
21
-56.405
31
15
0
ENDSEC
0
EOF
