999
Generated by Autodesk CAM - http://cam.autodesk.com
0
SECTION
2
HEADER
9
$ACADVER
1
AC1006
9
$ANGBASE
50
0
9
$ANGDIR
70
0
0
ENDSEC
0
SECTION
2
BLOCKS
0
ENDSEC
9
$EXTMIN
10
-72.951
20
-56.405
30
0
9
$EXTMAX
10
67.05
20
55.401
30
15
0
SECTION
2
ENTITIES
0
LINE
8
1
62
3
10
-26.281
20
-56.405
30
15
11
-26.281
21
-56.405
31
15
0
LINE
8
1
62
3
10
-26.281
20
-56.405
30
15
11
-26.281
21
-56.405
31
0
0
LINE
8
1
62
2
10
-26.281
20
-56.405
30
0
11
-26.283
21
-56.401
31
0
0
LINE
8
1
62
1
10
-26.283
20
-56.401
30
0
11
-26.284
21
-56.4
31
0
0
LINE
8
1
62
1
10
-26.284
20
-56.4
30
0
11
-26.284
21
-50.5
31
0
0
LINE
8
1
62
1
10
-26.284
20
-50.5
30
0
11
-41.838
21
-50.5
31
0
0
LINE
8
1
62
1
10
-41.838
20
-50.5
30
0
11
-41.838
21
-56.4
31
0
0
LINE
8
1
62
1
10
-41.838
20
-56.4
30
0
11
-41.839
21
-56.401
31
0
0
LINE
8
1
62
1
10
-41.839
20
-56.401
30
0
11
-57.394
21
-56.401
31
0
0
LINE
8
1
62
1
10
-57.394
20
-56.401
30
0
11
-57.395
21
-56.4
31
0
0
LINE
8
1
62
1
10
-57.395
20
-56.4
30
0
11
-57.395
21
-50.5
31
0
0
LINE
8
1
62
1
10
-57.395
20
-50.5
30
0
11
-72.95
21
-50.5
31
0
0
LINE
8
1
62
1
10
-72.95
20
-50.5
30
0
11
-72.951
21
-50.5
31
0
0
LINE
8
1
62
1
10
-72.951
20
-50.5
30
0
11
-72.951
21
49.5
31
0
0
LINE
8
1
62
1
10
-72.951
20
49.5
30
0
11
-72.95
21
49.5
31
0
0
LINE
8
1
62
1
10
-72.95
20
49.5
30
0
11
-57.395
21
49.5
31
0
0
LINE
8
1
62
1
10
-57.395
20
49.5
30
0
11
-57.395
21
55.4
31
0
0
LINE
8
1
62
1
10
-57.395
20
55.4
30
0
11
-57.394
21
55.401
31
0
0
LINE
8
1
62
1
10
-57.394
20
55.401
30
0
11
-41.839
21
55.401
31
0
0
LINE
8
1
62
1
10
-41.839
20
55.401
30
0
11
-41.838
21
55.4
31
0
0
LINE
8
1
62
1
10
-41.838
20
55.4
30
0
11
-41.838
21
49.5
31
0
0
LINE
8
1
62
1
10
-41.838
20
49.5
30
0
11
-26.284
21
49.5
31
0
0
LINE
8
1
62
1
10
-26.284
20
49.5
30
0
11
-26.284
21
55.4
31
0
0
LINE
8
1
62
1
10
-26.284
20
55.4
30
0
11
-26.283
21
55.401
31
0
0
LINE
8
1
62
1
10
-26.283
20
55.401
30
0
11
-10.728
21
55.401
31
0
0
LINE
8
1
62
1
10
-10.728
20
55.401
30
0
11
-10.727
21
55.4
31
0
0
LINE
8
1
62
1
10
-10.727
20
55.4
30
0
11
-10.727
21
49.5
31
0
0
LINE
8
1
62
1
10
-10.727
20
49.5
30
0
11
4.827
21
49.5
31
0
0
LINE
8
1
62
1
10
4.827
20
49.5
30
0
11
4.827
21
55.4
31
0
0
LINE
8
1
62
1
10
4.827
20
55.4
30
0
11
4.828
21
55.401
31
0
0
LINE
8
1
62
1
10
4.828
20
55.401
30
0
11
20.383
21
55.401
31
0
0
LINE
8
1
62
1
10
20.383
20
55.401
30
0
11
20.384
21
55.4
31
0
0
LINE
8
1
62
1
10
20.384
20
55.4
30
0
11
20.384
21
49.5
31
0
0
LINE
8
1
62
1
10
20.384
20
49.5
30
0
11
35.938
21
49.5
31
0
0
LINE
8
1
62
1
10
35.938
20
49.5
30
0
11
35.938
21
55.4
31
0
0
LINE
8
1
62
1
10
35.938
20
55.4
30
0
11
35.939
21
55.401
31
0
0
LINE
8
1
62
1
10
35.939
20
55.401
30
0
11
51.494
21
55.401
31
0
0
LINE
8
1
62
1
10
51.494
20
55.401
30
0
11
51.495
21
55.4
31
0
0
LINE
8
1
62
1
10
51.495
20
55.4
30
0
11
51.495
21
49.5
31
0
0
LINE
8
1
62
1
10
51.495
20
49.5
30
0
11
67.05
21
49.5
31
0
0
LINE
8
1
62
1
10
67.05
20
49.5
30
0
11
67.05
21
49.5
31
0
0
LINE
8
1
62
1
10
67.05
20
49.5
30
0
11
67.05
21
-50.5
31
0
0
LINE
8
1
62
1
10
67.05
20
-50.5
30
0
11
67.05
21
-50.5
31
0
0
LINE
8
1
62
1
10
67.05
20
-50.5
30
0
11
51.495
21
-50.5
31
0
0
LINE
8
1
62
1
10
51.495
20
-50.5
30
0
11
51.495
21
-56.4
31
0
0
LINE
8
1
62
1
10
51.495
20
-56.4
30
0
11
51.494
21
-56.401
31
0
0
LINE
8
1
62
1
10
51.494
20
-56.401
30
0
11
35.939
21
-56.401
31
0
0
LINE
8
1
62
1
10
35.939
20
-56.401
30
0
11
35.938
21
-56.4
31
0
0
LINE
8
1
62
1
10
35.938
20
-56.4
30
0
11
35.938
21
-50.5
31
0
0
LINE
8
1
62
1
10
35.938
20
-50.5
30
0
11
20.384
21
-50.5
31
0
0
LINE
8
1
62
1
10
20.384
20
-50.5
30
0
11
20.384
21
-56.4
31
0
0
LINE
8
1
62
1
10
20.384
20
-56.4
30
0
11
20.383
21
-56.401
31
0
0
LINE
8
1
62
1
10
20.383
20
-56.401
30
0
11
4.828
21
-56.401
31
0
0
LINE
8
1
62
1
10
4.828
20
-56.401
30
0
11
4.827
21
-56.4
31
0
0
LINE
8
1
62
1
10
4.827
20
-56.4
30
0
11
4.827
21
-50.5
31
0
0
LINE
8
1
62
1
10
4.827
20
-50.5
30
0
11
-10.727
21
-50.5
31
0
0
LINE
8
1
62
1
10
-10.727
20
-50.5
30
0
11
-10.727
21
-56.4
31
0
0
LINE
8
1
62
1
10
-10.727
20
-56.4
30
0
11
-10.728
21
-56.401
31
0
0
LINE
8
1
62
1
10
-10.728
20
-56.401
30
0
11
-26.283
21
-56.401
31
0
0
LINE
8
1
62
2
10
-26.283
20
-56.401
30
0
11
-26.286
21
-56.405
31
0
0
LINE
8
1
62
3
10
-26.286
20
-56.405
30
0
11
-26.286
21
-56.405
31
15
0
ENDSEC
0
EOF
